<?xml version="1.0" encoding="UTF-8" standalone="no"?>
<!-- Created with Inkscape (http://www.inkscape.org/) -->

<svg
   version="1.1"
   id="svg2"
   xml:space="preserve"
   width="853.33331"
   height="640"
   viewBox="0 0 853.33331 640"
   sodipodi:docname="LogoTMEIT.svg"
   inkscape:version="1.1.2 (0a00cf5339, 2022-02-04)"
   xmlns:inkscape="http://www.inkscape.org/namespaces/inkscape"
   xmlns:sodipodi="http://sodipodi.sourceforge.net/DTD/sodipodi-0.dtd"
   xmlns="http://www.w3.org/2000/svg"
   xmlns:svg="http://www.w3.org/2000/svg"><defs
     id="defs6"><clipPath
       clipPathUnits="userSpaceOnUse"
       id="clipPath16"><path
         d="m 334.921,436.303 c -26.58,-3.986 -53.226,-6.179 -76.467,-13.79 v 0 c -34.662,-11.345 -62.738,-28.519 -86.5,-48.892 v 0 c -8.325,-7.133 -30.695,-32.105 -39.489,-37.609 v 0 C 118.017,316.369 97.84,302.585 79.813,286.494 v 0 C 66.318,274.454 52.552,262.017 40.324,249.517 v 0 c -4.188,-4.28 -9.214,-8.944 -10.657,-15.044 v 0 c 15.269,0.857 27.598,7.266 40.116,11.909 v 0 c 12.712,4.723 25.217,10.022 38.862,12.534 v 0 C 90.693,223.023 70.999,185.005 57.874,143.584 v 0 C 47.926,112.194 38.299,79.374 27.788,49.564 v 0 c -3.68,-10.43 -8.67,-21.174 -8.15,-32.595 v 0 c 2.063,-1.058 4.006,-0.369 6.268,0 v 0 C 24.684,14.041 26,10.351 27.788,9.449 v 0 c 3.446,-1.742 8.368,6.413 10.028,8.777 v 0 c 7.071,10.047 9.44,15.224 15.044,25.07 v 0 c 2.495,4.38 5.472,10.254 8.147,12.537 v 0 c 1.524,1.298 3.799,1.177 5.643,2.507 v 0 c 6.668,4.821 10.084,16.774 13.163,24.446 v 0 c 1.102,2.752 2.337,6.512 3.761,8.776 v 0 c 1.153,1.843 3.685,3.296 5.014,5.013 v 0 c 8.405,10.851 13.72,27.748 19.431,38.861 v 0 c 11.226,8.207 13.351,25.517 20.685,37.61 v 0 c 2.062,1.761 5.209,2.934 6.894,5.014 v 0 c 5.229,6.455 7.297,17.775 11.91,23.819 v 0 c 1.699,2.23 5.146,3.286 6.895,5.641 v 0 c 3.335,4.507 5.102,11.644 7.521,17.551 v 0 c 2.389,5.823 4.94,11.607 8.149,16.923 v 0 c 9.872,16.361 14.629,33.807 35.101,36.98 v 0 c -2.2,-7.002 17.311,-10.617 20.597,-14.101 v 0 l 60.982,-0.712 0.116,-12.648 c 0.14,4.244 7.11,6.317 6.315,11.693 v 0 c -0.803,5.423 2.127,5.065 -10.004,11.433 v 0 c -4.506,2.368 -5.54,0.479 -6.548,4.335 v 0 c -0.81,3.108 0.782,6.706 1.253,8.775 v 0 c 0.601,2.64 0.688,4.752 2.506,7.521 v 0 c 34.834,13.396 63.539,30.871 88.379,52.653 v 0 c 8.452,7.409 15.57,16.372 24.445,23.192 v 0 c 4.902,3.767 13.321,5.216 20.06,6.268 v 0 c 2.079,1.266 2.345,4.344 5.013,5.014 v 0 c 15.466,-0.833 25.694,6.902 34.476,10.657 v 0 c 1.741,-5.398 0.081,-12.538 -1.253,-16.925 v 0 c 7.327,5.171 13.192,13.421 14.415,23.818 v 0 c 1.926,16.374 -8.395,29.317 -17.551,36.356 v 0 c 1.423,0.664 0.237,3.943 0.626,5.641 v 0 c -4.657,7.862 -13.341,11.622 -25.071,12.537 v 0 c -2.636,0.205 -5.208,0.301 -7.717,0.301 v 0 c -30.42,0.002 -52.106,-14.102 -81.292,-18.479 m -48.049,-185.126 -0.003,0.336 c -0.003,-0.111 -0.003,-0.222 0.003,-0.336"
         id="path14" /></clipPath><linearGradient
       x1="0"
       y1="0"
       x2="1"
       y2="0"
       gradientUnits="userSpaceOnUse"
       gradientTransform="matrix(-387.83179,-462.19992,-462.19992,387.83179,394.4668,489.31201)"
       spreadMethod="pad"
       id="linearGradient26"><stop
         style="stop-opacity:1;stop-color:#5c7ea1"
         offset="0"
         id="stop22" /><stop
         style="stop-opacity:1;stop-color:#ffffff"
         offset="1"
         id="stop24" /></linearGradient><clipPath
       clipPathUnits="userSpaceOnUse"
       id="clipPath36"><path
         d="M 0,480 H 640 V 0 H 0 Z"
         id="path34" /></clipPath><clipPath
       clipPathUnits="userSpaceOnUse"
       id="clipPath60"><path
         d="M 0,480 H 640 V 0 H 0 Z"
         id="path58" /></clipPath><clipPath
       clipPathUnits="userSpaceOnUse"
       id="clipPath84"><path
         d="M 0,480 H 640 V 0 H 0 Z"
         id="path82" /></clipPath><clipPath
       clipPathUnits="userSpaceOnUse"
       id="clipPath104"><path
         d="M 0,480 H 640 V 0 H 0 Z"
         id="path102" /></clipPath></defs><sodipodi:namedview
     id="namedview4"
     pagecolor="#ffffff"
     bordercolor="#666666"
     borderopacity="1.0"
     inkscape:pageshadow="2"
     inkscape:pageopacity="0.0"
     inkscape:pagecheckerboard="0"
     showgrid="false"
     inkscape:zoom="1.2125"
     inkscape:cx="426.80412"
     inkscape:cy="320"
     inkscape:window-width="1920"
     inkscape:window-height="1011"
     inkscape:window-x="0"
     inkscape:window-y="0"
     inkscape:window-maximized="1"
     inkscape:current-layer="g8" /><g
     id="g8"
     inkscape:groupmode="layer"
     inkscape:label="LogoTMEIT"
     transform="matrix(1.3333333,0,0,-1.3333333,0,640)"><g
       id="g10"><g
         id="g12"
         clip-path="url(#clipPath16)"><g
           id="g18"><g
             id="g20"><path
               d="m 334.921,436.303 c -26.58,-3.986 -53.226,-6.179 -76.467,-13.79 v 0 c -34.662,-11.345 -62.738,-28.519 -86.5,-48.892 v 0 c -8.325,-7.133 -30.695,-32.105 -39.489,-37.609 v 0 C 118.017,316.369 97.84,302.585 79.813,286.494 v 0 C 66.318,274.454 52.552,262.017 40.324,249.517 v 0 c -4.188,-4.28 -9.214,-8.944 -10.657,-15.044 v 0 c 15.269,0.857 27.598,7.266 40.116,11.909 v 0 c 12.712,4.723 25.217,10.022 38.862,12.534 v 0 C 90.693,223.023 70.999,185.005 57.874,143.584 v 0 C 47.926,112.194 38.299,79.374 27.788,49.564 v 0 c -3.68,-10.43 -8.67,-21.174 -8.15,-32.595 v 0 c 2.063,-1.058 4.006,-0.369 6.268,0 v 0 C 24.684,14.041 26,10.351 27.788,9.449 v 0 c 3.446,-1.742 8.368,6.413 10.028,8.777 v 0 c 7.071,10.047 9.44,15.224 15.044,25.07 v 0 c 2.495,4.38 5.472,10.254 8.147,12.537 v 0 c 1.524,1.298 3.799,1.177 5.643,2.507 v 0 c 6.668,4.821 10.084,16.774 13.163,24.446 v 0 c 1.102,2.752 2.337,6.512 3.761,8.776 v 0 c 1.153,1.843 3.685,3.296 5.014,5.013 v 0 c 8.405,10.851 13.72,27.748 19.431,38.861 v 0 c 11.226,8.207 13.351,25.517 20.685,37.61 v 0 c 2.062,1.761 5.209,2.934 6.894,5.014 v 0 c 5.229,6.455 7.297,17.775 11.91,23.819 v 0 c 1.699,2.23 5.146,3.286 6.895,5.641 v 0 c 3.335,4.507 5.102,11.644 7.521,17.551 v 0 c 2.389,5.823 4.94,11.607 8.149,16.923 v 0 c 9.872,16.361 14.629,33.807 35.101,36.98 v 0 c -2.2,-7.002 17.311,-10.617 20.597,-14.101 v 0 l 60.982,-0.712 0.116,-12.648 c 0.14,4.244 7.11,6.317 6.315,11.693 v 0 c -0.803,5.423 2.127,5.065 -10.004,11.433 v 0 c -4.506,2.368 -5.54,0.479 -6.548,4.335 v 0 c -0.81,3.108 0.782,6.706 1.253,8.775 v 0 c 0.601,2.64 0.688,4.752 2.506,7.521 v 0 c 34.834,13.396 63.539,30.871 88.379,52.653 v 0 c 8.452,7.409 15.57,16.372 24.445,23.192 v 0 c 4.902,3.767 13.321,5.216 20.06,6.268 v 0 c 2.079,1.266 2.345,4.344 5.013,5.014 v 0 c 15.466,-0.833 25.694,6.902 34.476,10.657 v 0 c 1.741,-5.398 0.081,-12.538 -1.253,-16.925 v 0 c 7.327,5.171 13.192,13.421 14.415,23.818 v 0 c 1.926,16.374 -8.395,29.317 -17.551,36.356 v 0 c 1.423,0.664 0.237,3.943 0.626,5.641 v 0 c -4.657,7.862 -13.341,11.622 -25.071,12.537 v 0 c -2.636,0.205 -5.208,0.301 -7.717,0.301 v 0 c -30.42,0.002 -52.106,-14.102 -81.292,-18.479 m -48.049,-185.126 -0.003,0.336 c -0.003,-0.111 -0.003,-0.222 0.003,-0.336"
               style="fill:url(#linearGradient26);stroke:none"
               id="path28" /></g></g></g></g><g
       id="g30"><g
         id="g32"
         clip-path="url(#clipPath36)"><g
           id="g38"
           transform="translate(286.7524,264.1611)"><path
             d="m 0,0 0.12,-12.983 c -0.231,4.474 7.127,6.512 6.312,12.028 -0.804,5.423 2.126,5.065 -10.005,11.433 -4.506,2.367 -5.539,0.479 -6.548,4.335 -0.809,3.108 0.783,6.706 1.254,8.774 0.601,2.64 0.688,4.752 2.506,7.522 34.833,13.395 63.539,30.871 88.378,52.653 8.453,7.408 15.571,16.372 24.445,23.192 4.903,3.768 13.322,5.215 20.06,6.268 2.08,1.266 2.346,4.343 5.014,5.014 15.465,-0.833 25.693,6.902 34.475,10.657 1.742,-5.398 0.081,-12.538 -1.253,-16.925 7.327,5.171 13.193,13.421 14.415,23.819 1.926,16.373 -8.394,29.316 -17.55,36.355 1.423,0.664 0.237,3.943 0.626,5.641 -4.657,7.861 -13.341,11.622 -25.072,12.537 -34.606,2.695 -57.416,-13.44 -89.008,-18.178 -26.581,-3.986 -53.227,-6.18 -76.467,-13.79 -34.662,-11.346 -62.739,-28.519 -86.5,-48.892 -8.325,-7.133 -30.696,-32.105 -39.49,-37.608 -14.448,-19.644 -34.625,-33.428 -52.652,-49.519 -13.495,-12.04 -27.26,-24.477 -39.489,-36.978 -4.188,-4.279 -9.214,-8.944 -10.656,-15.043 15.269,0.857 27.598,7.266 40.116,11.909 12.712,4.723 25.217,10.021 38.862,12.533 -17.952,-35.893 -37.646,-73.91 -50.771,-115.331 -9.948,-31.39 -19.576,-64.21 -30.087,-94.021 -3.68,-10.429 -8.669,-21.173 -8.15,-32.593 2.063,-1.059 4.006,-0.37 6.269,0 -1.222,-2.929 0.094,-6.62 1.881,-7.521 3.447,-1.742 8.368,6.412 10.029,8.776 7.07,10.047 9.439,15.225 15.043,25.071 2.495,4.38 5.473,10.254 8.148,12.537 1.524,1.298 3.799,1.178 5.642,2.507 6.669,4.821 10.085,16.774 13.163,24.445 1.103,2.753 2.338,6.513 3.761,8.776 1.153,1.843 3.685,3.297 5.014,5.014 8.406,10.851 13.721,27.748 19.432,38.86 11.226,8.207 13.351,25.518 20.684,37.611 2.062,1.761 5.209,2.933 6.895,5.013 5.228,6.456 7.297,17.777 11.909,23.82 1.7,2.23 5.146,3.286 6.895,5.641 3.335,4.506 5.102,11.644 7.522,17.551 2.389,5.823 4.939,11.607 8.149,16.923 9.872,16.36 14.629,33.807 35.101,36.98 -2.2,-7.002 17.311,-10.618 20.597,-14.101"
             style="fill:none;stroke:#000000;stroke-width:4;stroke-linecap:butt;stroke-linejoin:miter;stroke-miterlimit:4;stroke-dasharray:none;stroke-opacity:1"
             id="path40" /></g><g
           id="g42"
           transform="translate(427.9121,430.2842)"><path
             d="m 0,0 c 0,-5.482 -4.444,-9.927 -9.929,-9.927 -5.482,0 -9.926,4.445 -9.926,9.927 0,5.483 4.444,9.928 9.926,9.928 C -4.444,9.928 0,5.483 0,0"
             style="fill:#ffffff;fill-opacity:1;fill-rule:nonzero;stroke:none"
             id="path44" /></g><g
           id="g46"
           transform="translate(427.9121,430.2842)"><path
             d="m 0,0 c 0,-5.482 -4.444,-9.927 -9.929,-9.927 -5.482,0 -9.926,4.445 -9.926,9.927 0,5.483 4.444,9.928 9.926,9.928 C -4.444,9.928 0,5.483 0,0 Z"
             style="fill:none;stroke:#000000;stroke-width:3;stroke-linecap:butt;stroke-linejoin:miter;stroke-miterlimit:4;stroke-dasharray:none;stroke-opacity:1"
             id="path48" /></g><g
           id="g50"
           transform="translate(425.0977,426.2197)"><path
             d="m 0,0 c 0,-2.789 -2.26,-5.049 -5.049,-5.049 -2.788,0 -5.049,2.26 -5.049,5.049 0,2.789 2.261,5.05 5.049,5.05 C -2.26,5.05 0,2.789 0,0"
             style="fill:#000000;fill-opacity:1;fill-rule:nonzero;stroke:none"
             id="path52" /></g></g></g><g
       id="g54"><g
         id="g56"
         clip-path="url(#clipPath60)"><g
           id="g62"
           transform="translate(46.4092,81.1406)"><path
             d="m 0,0 c -1.78,0 -3.56,1.525 -3.56,3.56 v 132.713 c 0,1.781 -1.525,3.051 -3.305,3.051 h -25.424 c -1.525,0 -3.305,2.034 -3.305,3.56 v 45.255 c 0,1.526 0.762,2.543 2.288,2.543 H 75.51 c 1.78,0 3.305,-1.017 3.305,-3.052 v -44.746 c 0,-2.034 -1.525,-3.56 -3.56,-3.56 H 49.831 c -1.78,0 -3.051,-1.27 -3.051,-3.558 V 3.305 C 46.78,1.525 45.255,0 43.221,0 Z"
             style="fill:#000000;fill-opacity:1;fill-rule:nonzero;stroke:none"
             id="path64" /></g><g
           id="g66"
           transform="translate(136.1548,81.1406)"><path
             d="m 0,0 c -1.017,0 -2.034,1.271 -2.034,2.288 v 185.851 c 0,1.271 0.763,2.543 2.034,2.543 h 68.137 c 1.271,0 2.288,-1.017 2.542,-2.543 l 7.628,-50.594 c 0.254,-1.779 0.762,-2.542 1.271,-2.542 0.508,0 1.017,1.017 1.017,2.796 l 6.102,50.086 c 0.254,1.525 1.271,2.797 2.796,2.797 h 70.679 c 1.78,0 2.797,-1.017 2.797,-2.797 V 2.542 C 162.969,1.017 161.698,0 160.172,0 h -46.017 c -1.526,0 -2.797,1.017 -2.797,2.797 v 79.577 c 0,2.034 -0.254,2.797 -0.763,2.797 -0.508,0 -1.016,-1.017 -1.78,-5.085 L 95.595,2.034 C 95.341,0.509 94.07,0 92.798,0 H 64.069 C 62.798,0 61.781,1.017 61.272,2.797 L 49.577,75.51 c -0.763,4.322 -1.779,5.085 -2.542,5.085 -0.763,0 -1.271,-1.272 -1.271,-3.306 V 2.797 C 45.764,1.017 45.001,0 43.221,0 Z"
             style="fill:#000000;fill-opacity:1;fill-rule:nonzero;stroke:none"
             id="path68" /></g><g
           id="g70"
           transform="translate(309.292,268.5171)"><path
             d="m 0,0 c 0,1.525 1.525,3.305 3.305,3.305 h 90.257 c 1.525,0 2.541,-1.271 2.541,-2.797 v -45.763 c 0,-1.526 -1.27,-2.542 -2.795,-2.542 H 50.849 c -1.018,0 -1.78,-0.763 -1.78,-1.781 v -14.237 c 0,-1.017 1.016,-1.779 1.78,-1.779 h 20.084 c 1.017,0 1.781,-0.763 1.781,-1.781 v -46.271 c 0,-1.271 -1.018,-2.288 -2.035,-2.288 H 50.085 c -1.016,0 -1.779,-0.763 -1.779,-2.034 v -15 c 0,-1.018 0.763,-1.781 1.525,-1.781 h 43.984 c 1.78,0 2.797,-1.271 2.797,-2.542 v -47.289 c 0,-1.525 -1.271,-2.796 -2.797,-2.796 H 2.796 c -1.525,0 -2.796,1.525 -2.796,3.304 z"
             style="fill:#000000;fill-opacity:1;fill-rule:nonzero;stroke:none"
             id="path72" /></g><g
           id="g74"
           transform="translate(547.0059,81.1406)"><path
             d="m 0,0 c -1.779,0 -3.559,1.525 -3.559,3.56 v 132.713 c 0,1.781 -1.525,3.051 -3.304,3.051 h -25.424 c -1.526,0 -3.307,2.034 -3.307,3.56 v 45.255 c 0,1.526 0.764,2.543 2.289,2.543 H 75.51 c 1.781,0 3.306,-1.017 3.306,-3.052 v -44.746 c 0,-2.034 -1.525,-3.56 -3.56,-3.56 H 49.832 c -1.779,0 -3.051,-1.27 -3.051,-3.558 V 3.305 C 46.781,1.525 45.256,0 43.223,0 Z"
             style="fill:#000000;fill-opacity:1;fill-rule:nonzero;stroke:none"
             id="path76" /></g></g></g><g
       id="g78"><g
         id="g80"
         clip-path="url(#clipPath84)"><g
           id="g86"
           transform="translate(431.3721,39.3604)"><path
             d="m 0,0 c -3.701,5.625 -5.319,13.011 -5.797,19.451 -2.107,28.454 -1.472,59.962 -3.218,91.162 -0.874,15.637 -1.937,30.695 -2.574,45.999 -0.819,19.754 -4.585,42.844 -0.388,57.419 3.197,11.097 16.048,20.369 18.973,31.196 6.37,23.6 -3.313,57.405 -0.711,80.003 7.026,3.502 21.589,3.595 29.101,1.629 4.972,-22.309 -1.766,-58.06 7.335,-80.574 3.594,-8.894 16.346,-17.565 20.297,-26.173 0.936,-2.038 2.77,-6.935 3.394,-10.168 5.293,-27.425 2.458,-60.735 4.315,-93.927 0.848,-15.145 1.137,-30.739 1.582,-45.113 0.819,-26.491 8.144,-47.925 0.913,-66.806"
             style="fill:#000000;fill-opacity:1;fill-rule:evenodd;stroke:none"
             id="path88" /></g><g
           id="g90"
           transform="translate(430,262.5)"><path
             d="M 0,0 9,13.25 13.5,24.5 15.25,39 14.14,56.541 36,58.75 V 40 l 3.75,-13.75 5.959,-13 9.041,-9.25 4,-4 -61,-2.5 z"
             style="fill:#343434;fill-opacity:1;fill-rule:evenodd;stroke:none"
             id="path92" /></g><g
           id="g94"
           transform="translate(456.0234,264.9478)"><path
             d="m 0,0 c -10.302,2.662 -28.273,-4.948 -28.273,-4.948 l -5.083,-7.333 -2.053,-7 v -5.667 -10.333 l 1.219,-17.167 5.5,-121.5 1.167,-32 2.333,-10.333 c 0,0 9.771,-1.095 21.5,5.5 7.336,4.126 17.765,3.657 25.834,0.666 9.973,-3.697 26.333,-3.171 26.333,-3.171 l -1.167,23.671 -1.666,17.92 -1.219,18.414 -0.781,25.166 -1.667,42.594 0.667,31.74 -1.334,24.166 -3.333,18.501 -2.5,6.166 -2.75,2.5 C 32.727,-2.448 16.812,-4.344 0,0"
             style="fill:#0d0d0d;fill-opacity:1;fill-rule:evenodd;stroke:none"
             id="path96" /></g></g></g><g
       id="g98"><g
         id="g100"
         clip-path="url(#clipPath104)"><g
           id="g106"
           transform="translate(423.5977,227.3535)"><path
             d="m 0,0 c 0,0 6.439,-4.417 30.403,3.646 26.749,9 40.775,0.996 40.775,0.996 l 5.673,-133.069 c 0,0 -16.433,4.898 -35.439,-2.804 -22.51,-9.123 -36.254,-2.87 -36.254,-2.87 z"
             style="fill:#dddbe8;fill-opacity:1;fill-rule:nonzero;stroke:none"
             id="path108" /></g><g
           id="g110"
           transform="translate(424.9873,191.2285)"><path
             d="m 0,0 c 19.957,2.993 20.827,8.561 42.688,6.857 7.41,-0.577 12.898,-2.953 15.841,-7.919 -0.247,-1.073 0.503,-3.143 -0.397,-3.563 5.785,-4.446 12.303,-12.624 11.088,-22.967 -0.773,-6.569 -4.48,-11.781 -9.108,-15.047 0.843,2.772 4.367,10.331 -0.883,14.871 -7.479,2.158 -6.763,3.843 -11.538,6.707 2.043,-3.908 0.999,-9.12 5.932,-12.069 -2.741,-0.822 -8.384,-4.219 -11.977,-5.775 -2.818,-1.24 -4.375,-2.142 -5.689,-2.943 -4.256,-0.664 -9.574,-1.579 -12.67,-3.958 C 17.68,-50.114 7.876,-61.303 2.538,-65.981"
             style="fill:#000000;fill-opacity:1;fill-rule:nonzero;stroke:none"
             id="path112" /></g><g
           id="g114"
           transform="translate(467.8242,184.3281)"><path
             d="m 0,0 c 0,-3.259 -2.643,-5.901 -5.9,-5.901 -3.259,0 -5.901,2.642 -5.901,5.901 0,3.258 2.642,5.9 5.901,5.9 C -2.643,5.9 0,3.258 0,0"
             style="fill:#cccccc;fill-opacity:1;fill-rule:nonzero;stroke:none"
             id="path116" /></g><g
           id="g118"
           transform="translate(454.667,191.333)"><path
             d="M 0,0 14.042,-14.042"
             style="fill:none;stroke:#000000;stroke-width:2;stroke-linecap:butt;stroke-linejoin:miter;stroke-miterlimit:4;stroke-dasharray:none;stroke-opacity:1"
             id="path120" /></g><g
           id="g122"
           transform="translate(454.001,176.083)"><path
             d="M 0,0 16.208,16.208"
             style="fill:none;stroke:#000000;stroke-width:2;stroke-linecap:butt;stroke-linejoin:miter;stroke-miterlimit:4;stroke-dasharray:none;stroke-opacity:1"
             id="path124" /></g></g></g></g></svg>
