<svg xmlns="http://www.w3.org/2000/svg" xml:space="preserve" width="615" height="333.1"><defs><clipPath id="a" clipPathUnits="userSpaceOnUse"><path d="M0 480h640V0H0Z"/></clipPath><clipPath id="b" clipPathUnits="userSpaceOnUse"><path d="M0 480h640V0H0Z"/></clipPath><clipPath id="e" clipPathUnits="userSpaceOnUse"><path d="M0 480h640V0H0Z"/></clipPath><clipPath id="c" clipPathUnits="userSpaceOnUse"><path d="M-19-5H81.5v338.1H-19Zm11.2 193s6.5-4.4 30.4 3.6c26.8 9 40.8 1 40.8 1l5.7-133s-16.5 4.9-35.5-2.8c-22.5-9.2-36.2-3-36.2-3z" class="powerclip"/></clipPath><clipPath id="d" clipPathUnits="userSpaceOnUse"><path d="M-40.4-221.3h93.9V5.6h-94zm8 183.7S-26-42-2-33.9c26.7 9 40.8 1 40.8 1L44.4-166S28-161.1 9-168.8c-22.5-9.1-36.3-2.9-36.3-2.9z" class="powerclip"/></clipPath><clipPath id="f" clipPathUnits="userSpaceOnUse"><path d="M-5-71h79.4v83.2H-5ZM42.8-6.9a5.9 5.9 0 1 0-11.8 0 5.9 5.9 0 0 0 11.8 0" class="powerclip"/></clipPath></defs><g fill="#fff" clip-path="url(#a)" transform="matrix(1 0 0 -1 -10.8 367.5)"><path d="M46.4 81.1a3.6 3.6 0 0 0-3.6 3.6v132.7c0 1.8-1.5 3-3.3 3H14.1c-1.5 0-3.3 2.1-3.3 3.6v45.3c0 1.5.8 2.5 2.3 2.5h108.8c1.8 0 3.3-1 3.3-3V224c0-2-1.5-3.5-3.5-3.5H96.2c-1.7 0-3-1.3-3-3.6V84.4c0-1.7-1.5-3.3-3.6-3.3zm89.8 0c-1 0-2 1.3-2 2.3v185.9c0 1.3.7 2.5 2 2.5h68c1.4 0 2.4-1 2.6-2.5l7.7-50.6c.2-1.8.7-2.6 1.2-2.6s1 1 1 2.8L223 269c.2 1.6 1.2 2.8 2.7 2.8h70.7c1.8 0 2.8-1 2.8-2.8V83.7c0-1.5-1.2-2.6-2.8-2.6h-46c-1.5 0-2.8 1-2.8 2.8v79.6c0 2-.2 2.8-.8 2.8-.5 0-1-1-1.7-5l-13.3-78.1c-.2-1.6-1.5-2-2.7-2h-28.8c-1.2 0-2.3 1-2.8 2.7l-11.7 72.8c-.7 4.3-1.7 5-2.5 5s-1.3-1.2-1.3-3.3V84c0-1.7-.7-2.8-2.5-2.8zm173.1 187.4c0 1.5 1.5 3.3 3.3 3.3h90.3c1.5 0 2.5-1.2 2.5-2.8v-45.7c0-1.6-1.3-2.6-2.8-2.6h-42.5c-1 0-1.7-.7-1.7-1.8v-14.2c0-1 1-1.8 1.7-1.8h20.1c1 0 1.8-.7 1.8-1.8V155c0-1.3-1-2.3-2-2.3h-20.6c-1 0-1.8-.8-1.8-2v-15c0-1 .8-1.8 1.5-1.8h44c1.8 0 2.8-1.3 2.8-2.6V84c0-1.5-1.3-2.8-2.8-2.8h-91c-1.5 0-2.8 1.6-2.8 3.3zM547 81.1a3.6 3.6 0 0 0-3.6 3.6v132.7c0 1.8-1.5 3-3.3 3h-25.4c-1.5 0-3.3 2.1-3.3 3.6v45.3c0 1.5.8 2.5 2.3 2.5h108.8c1.8 0 3.3-1 3.3-3V224c0-2-1.5-3.5-3.5-3.5h-25.5c-1.7 0-3-1.3-3-3.6V84.4c0-1.7-1.5-3.3-3.6-3.3z"/></g><g fill="#fff" fill-rule="evenodd" clip-path="url(#b)" transform="matrix(1 0 0 -1 -10.8 367.5)"><path d="M0 0a42 42 0 0 0-5.8 19.5c-2.1 28.4-1.5 60-3.2 91.1-.9 15.7-2 30.7-2.6 46-.8 19.8-4.6 42.9-.4 57.4 3.2 11.1 16 20.4 19 31.2 6.4 23.6-3.3 57.4-.7 80a53 53 0 0 0 29 1.7c5-22.3-1.7-58.1 7.4-80.6 3.6-9 16.4-17.6 20.3-26.2 1-2 2.8-7 3.4-10.2 5.3-27.4 2.5-60.7 4.3-93.9.9-15.1 1.2-30.7 1.6-45.1.8-26.5 8.2-48 1-66.8" clip-path="url(#c)" transform="translate(431.4 39.4)"/><path d="m430 262.5 9 13.3 4.5 11.2 1.8 14.5L444 319l21.9 2.3v-18.8l3.8-13.8 6-13 9-9.2 4-4-61-2.5z"/><path d="M0 0c-10.3 2.7-28.3-5-28.3-5l-5-7.3-2.1-7v-16l1.2-17.1 5.5-121.5 1.2-32 2.3-10.4s9.8-1 21.5 5.5a32.5 32.5 0 0 0 25.8.7c10-3.7 26.4-3.2 26.4-3.2l-1.2 23.7-1.7 17.9-1.2 18.4-.8 25.2L42-85.5l.6 31.7-1.3 24.2L38-11.1 35.5-5l-2.8 2.5S16.8-4.4 0 0" clip-path="url(#d)" transform="translate(456 265)"/></g><g clip-path="url(#e)" transform="matrix(1 0 0 -1 -10.8 367.5)"><path fill="#fff" d="M0 0c20 3 20.8 8.6 42.7 6.9 7.4-.6 12.9-3 15.8-8-.2-1 .5-3.1-.4-3.5 5.8-4.5 12.3-12.6 11.1-23a21.5 21.5 0 0 0-9-15c.8 2.7 4.3 10.3-1 14.8-7.5 2.2-6.7 3.9-11.5 6.7 2-3.9 1-9 6-12-2.8-.9-8.5-4.2-12-5.8a44 44 0 0 1-5.7-3 30 30 0 0 1-12.7-4C17.7-50 7.9-61.2 2.5-65.8" clip-path="url(#f)" transform="translate(425 191.2)"/><path fill="none" stroke="#fff" stroke-width="2" d="m454.7 191.3 14-14M454 176l16.2 16.3"/></g></svg>